<svg data-v-fde0c5aa="" xmlns="http://www.w3.org/2000/svg" viewBox="0 0 300 300" class="iconLeftSlogan"><!----><defs data-v-fde0c5aa=""><!----></defs><rect data-v-fde0c5aa="" fill="transparent" x="0" y="0" width="300px" height="300px" class="logo-background-square"></rect><defs data-v-fde0c5aa=""><!----></defs><g data-v-fde0c5aa="" id="b40ac796-8972-4a07-9aa3-d5963596243b" fill="#000000" transform="matrix(1.9919952315368483,0,0,1.9919952315368483,101.3375736815102,121.91268249976525)"><path d="M0.84 12.77L0.84 12.77Q0.73 12.77 0.67 12.68L0.67 12.68L0.67 12.68Q0.60 12.59 0.60 12.46L0.60 12.46L0.60 12.46Q0.62 12.25 0.69 12.21L0.69 12.21L0.69 12.21Q0.76 12.17 0.95 12.17L0.95 12.17L0.95 12.17Q1.36 12.17 1.55 12.02L1.55 12.02L1.55 12.02Q1.75 11.87 1.80 11.66L1.80 11.66L1.80 11.66Q1.85 11.44 1.86 11.09L1.86 11.09L1.86 5.53L1.86 5.53Q1.85 5.18 1.80 4.96L1.80 4.96L1.80 4.96Q1.75 4.75 1.55 4.60L1.55 4.60L1.55 4.60Q1.36 4.45 0.95 4.45L0.95 4.45L0.87 4.45L0.87 4.45Q0.73 4.45 0.67 4.40L0.67 4.40L0.67 4.40Q0.62 4.35 0.60 4.16L0.60 4.16L0.60 4.16Q0.60 4.03 0.67 3.94L0.67 3.94L0.67 3.94Q0.73 3.85 0.84 3.85L0.84 3.85L0.84 3.85Q1.75 3.89 2.51 3.89L2.51 3.89L6.55 3.89L6.55 3.89Q6.92 3.89 6.92 4.23L6.92 4.23L6.96 6.19L6.96 6.19Q6.96 6.31 6.83 6.39L6.83 6.39L6.83 6.39Q6.71 6.47 6.58 6.47L6.58 6.47L6.58 6.47Q6.41 6.47 6.28 6.41L6.28 6.41L6.28 6.41Q6.15 6.34 6.13 6.22L6.13 6.22L6.13 6.22Q6.03 5.53 5.90 5.17L5.90 5.17L5.90 5.17Q5.77 4.82 5.51 4.64L5.51 4.64L5.51 4.64Q5.25 4.47 4.77 4.45L4.77 4.45L3.25 4.45L3.25 8.09L5.75 8.09L5.75 8.09Q5.87 8.11 5.92 8.20L5.92 8.20L5.92 8.20Q5.98 8.29 5.98 8.41L5.98 8.41L5.98 8.41Q5.98 8.53 5.92 8.61L5.92 8.61L5.92 8.61Q5.87 8.69 5.75 8.69L5.75 8.69L3.25 8.69L3.25 11.09L3.25 11.09Q3.26 11.44 3.31 11.66L3.31 11.66L3.31 11.66Q3.36 11.87 3.56 12.02L3.56 12.02L3.56 12.02Q3.75 12.17 4.16 12.17L4.16 12.17L4.24 12.17L4.24 12.17Q4.37 12.17 4.43 12.22L4.43 12.22L4.43 12.22Q4.49 12.26 4.51 12.46L4.51 12.46L4.51 12.46Q4.51 12.59 4.45 12.68L4.45 12.68L4.45 12.68Q4.38 12.77 4.26 12.77L4.26 12.77L4.26 12.77Q3.36 12.73 2.52 12.73L2.52 12.73L2.52 12.73Q1.75 12.73 0.84 12.77L0.84 12.77ZM10.37 12.96L10.37 12.96Q9.69 12.96 9.20 12.46L9.20 12.46L9.20 12.46Q8.71 11.96 8.71 11.02L8.71 11.02L8.71 6.90L7.90 6.93L7.90 6.93Q7.81 6.93 7.76 6.85L7.76 6.85L7.76 6.85Q7.70 6.78 7.70 6.68L7.70 6.68L7.70 6.68Q7.70 6.55 7.75 6.46L7.75 6.46L7.75 6.46Q7.80 6.37 7.90 6.36L7.90 6.36L7.90 6.36Q8.39 6.26 8.66 6.04L8.66 6.04L8.66 6.04Q8.93 5.82 9.06 5.57L9.06 5.57L9.06 5.57Q9.18 5.31 9.37 4.77L9.37 4.77L9.37 4.77Q9.44 4.59 9.67 4.59L9.67 4.59L9.67 4.59Q9.77 4.59 9.87 4.64L9.87 4.64L9.87 4.64Q9.97 4.69 9.97 4.79L9.97 4.79L9.87 6.38L11.51 6.29L11.54 6.29L11.54 6.29Q11.72 6.29 11.72 6.55L11.72 6.55L11.72 6.55Q11.72 6.71 11.67 6.84L11.67 6.84L11.67 6.84Q11.62 6.97 11.55 6.97L11.55 6.97L9.98 6.93L9.98 11.19L9.98 11.19Q9.98 11.65 10.17 11.96L10.17 11.96L10.17 11.96Q10.36 12.26 10.79 12.26L10.79 12.26L10.79 12.26Q11.23 12.26 11.56 12.11L11.56 12.11L11.56 12.11Q11.75 12.04 11.79 12.04L11.79 12.04L11.79 12.04Q11.89 12.04 11.94 12.12L11.94 12.12L11.94 12.12Q12.00 12.19 12.05 12.32L12.05 12.32L12.05 12.32Q12.07 12.35 12.07 12.39L12.07 12.39L12.07 12.39Q12.07 12.45 11.98 12.52L11.98 12.52L11.98 12.52Q11.58 12.78 11.22 12.87L11.22 12.87L11.22 12.87Q10.86 12.96 10.37 12.96L10.37 12.96ZM15.68 12.96L15.68 12.96Q14.99 12.96 14.50 12.46L14.50 12.46L14.50 12.46Q14.01 11.96 14.01 11.02L14.01 11.02L14.01 6.90L13.20 6.93L13.20 6.93Q13.12 6.93 13.06 6.85L13.06 6.85L13.06 6.85Q13.01 6.78 13.01 6.68L13.01 6.68L13.01 6.68Q13.01 6.55 13.05 6.46L13.05 6.46L13.05 6.46Q13.10 6.37 13.20 6.36L13.20 6.36L13.20 6.36Q13.69 6.26 13.96 6.04L13.96 6.04L13.96 6.04Q14.24 5.82 14.36 5.57L14.36 5.57L14.36 5.57Q14.49 5.31 14.67 4.77L14.67 4.77L14.67 4.77Q14.74 4.59 14.98 4.59L14.98 4.59L14.98 4.59Q15.08 4.59 15.18 4.64L15.18 4.64L15.18 4.64Q15.27 4.69 15.27 4.79L15.27 4.79L15.18 6.38L16.81 6.29L16.84 6.29L16.84 6.29Q17.02 6.29 17.02 6.55L17.02 6.55L17.02 6.55Q17.02 6.71 16.98 6.84L16.98 6.84L16.98 6.84Q16.93 6.97 16.86 6.97L16.86 6.97L15.29 6.93L15.29 11.19L15.29 11.19Q15.29 11.65 15.48 11.96L15.48 11.96L15.48 11.96Q15.67 12.26 16.10 12.26L16.10 12.26L16.10 12.26Q16.53 12.26 16.87 12.11L16.87 12.11L16.87 12.11Q17.05 12.04 17.09 12.04L17.09 12.04L17.09 12.04Q17.19 12.04 17.25 12.12L17.25 12.12L17.25 12.12Q17.30 12.19 17.36 12.32L17.36 12.32L17.36 12.32Q17.37 12.35 17.37 12.39L17.37 12.39L17.37 12.39Q17.37 12.45 17.29 12.52L17.29 12.52L17.29 12.52Q16.88 12.78 16.53 12.87L16.53 12.87L16.53 12.87Q16.17 12.96 15.68 12.96L15.68 12.96ZM18.41 12.77L18.41 12.77Q18.31 12.77 18.26 12.68L18.26 12.68L18.26 12.68Q18.20 12.59 18.20 12.49L18.20 12.49L18.20 12.49Q18.21 12.32 18.27 12.28L18.27 12.28L18.27 12.28Q18.33 12.24 18.44 12.24L18.44 12.24L18.44 12.24Q18.75 12.24 18.94 12.15L18.94 12.15L18.94 12.15Q19.14 12.07 19.28 11.93L19.28 11.93L19.28 11.93Q19.42 11.79 19.73 11.41L19.73 11.41L19.73 11.41Q20.08 11.02 21.14 9.70L21.14 9.70L19.54 7.45L19.54 7.45Q19.36 7.21 19.16 7.08L19.16 7.08L19.16 7.08Q18.96 6.94 18.66 6.89L18.66 6.89L18.66 6.89Q18.62 6.87 18.51 6.86L18.51 6.86L18.51 6.86Q18.40 6.85 18.37 6.79L18.37 6.79L18.37 6.79Q18.34 6.73 18.34 6.59L18.34 6.59L18.34 6.59Q18.34 6.43 18.43 6.38L18.43 6.38L18.43 6.38Q18.52 6.34 18.66 6.34L18.66 6.34L18.66 6.34Q18.79 6.33 18.83 6.33L18.83 6.33L18.83 6.33Q20.26 6.26 20.90 7.11L20.90 7.11L21.17 7.50L21.17 7.50Q21.53 8.12 21.97 8.69L21.97 8.69L22.90 7.48L22.90 7.48Q23.14 7.15 23.14 7.03L23.14 7.03L23.14 7.03Q23.14 6.94 23.02 6.92L23.02 6.92L23.02 6.92Q22.89 6.89 22.55 6.87L22.55 6.87L22.47 6.87L22.47 6.87Q22.36 6.87 22.31 6.83L22.31 6.83L22.31 6.83Q22.26 6.79 22.25 6.62L22.25 6.62L22.25 6.62Q22.25 6.52 22.30 6.43L22.30 6.43L22.30 6.43Q22.34 6.34 22.44 6.34L22.44 6.34L22.44 6.34Q23.24 6.38 23.62 6.38L23.62 6.38L23.62 6.38Q24.01 6.38 24.82 6.34L24.82 6.34L24.82 6.34Q24.92 6.34 24.98 6.43L24.98 6.43L24.98 6.43Q25.03 6.52 25.03 6.62L25.03 6.62L25.03 6.62Q25.02 6.78 24.96 6.82L24.96 6.82L24.96 6.82Q24.91 6.86 24.83 6.87L24.83 6.87L24.83 6.87Q24.75 6.87 24.72 6.87L24.72 6.87L24.72 6.87Q24.32 6.89 24.12 7.04L24.12 7.04L24.12 7.04Q23.91 7.18 23.51 7.70L23.51 7.70L23.51 7.70Q23.37 7.85 23.06 8.26L23.06 8.26L23.06 8.26Q22.51 8.95 22.33 9.17L22.33 9.17L22.33 9.17Q23.48 10.65 24.04 11.41L24.04 11.41L24.04 11.41Q24.30 11.79 24.57 12.01L24.57 12.01L24.57 12.01Q24.84 12.24 25.16 12.24L25.16 12.24L25.24 12.24L25.24 12.24Q25.35 12.24 25.41 12.28L25.41 12.28L25.41 12.28Q25.47 12.32 25.48 12.49L25.48 12.49L25.48 12.49Q25.48 12.60 25.42 12.68L25.42 12.68L25.42 12.68Q25.35 12.77 25.26 12.77L25.26 12.77L25.26 12.77Q24.43 12.73 23.91 12.73L23.91 12.73L23.91 12.73Q23.25 12.73 22.43 12.77L22.43 12.77L22.43 12.77Q22.33 12.77 22.27 12.68L22.27 12.68L22.27 12.68Q22.20 12.60 22.20 12.49L22.20 12.49L22.20 12.49Q22.22 12.31 22.28 12.27L22.28 12.27L22.28 12.27Q22.34 12.24 22.53 12.24L22.53 12.24L22.53 12.24Q22.82 12.24 22.82 12.04L22.82 12.04L22.82 12.04Q22.82 11.90 22.62 11.63L22.62 11.63L21.53 10.18L20.33 11.63L20.33 11.63Q20.09 11.94 20.09 12.05L20.09 12.05L20.09 12.05Q20.09 12.15 20.23 12.19L20.23 12.19L20.23 12.19Q20.37 12.24 20.68 12.24L20.68 12.24L20.76 12.24L20.76 12.24Q20.87 12.24 20.92 12.28L20.92 12.28L20.92 12.28Q20.97 12.32 20.99 12.49L20.99 12.49L20.99 12.49Q20.99 12.59 20.94 12.68L20.94 12.68L20.94 12.68Q20.89 12.77 20.79 12.77L20.79 12.77L20.79 12.77Q19.99 12.73 19.61 12.73L19.61 12.73L19.61 12.73Q19.24 12.73 18.41 12.77L18.41 12.77ZM26.70 9.94L26.70 9.94Q26.56 9.94 26.47 9.79L26.47 9.79L26.47 9.79Q26.38 9.65 26.38 9.49L26.38 9.49L26.38 9.49Q26.38 9.34 26.47 9.19L26.47 9.19L26.47 9.19Q26.56 9.04 26.70 9.04L26.70 9.04L29.76 9.04L29.76 9.04Q29.90 9.04 30.00 9.19L30.00 9.19L30.00 9.19Q30.09 9.34 30.09 9.49L30.09 9.49L30.09 9.49Q30.09 9.65 30.00 9.79L30.00 9.79L30.00 9.79Q29.90 9.94 29.76 9.94L29.76 9.94L26.70 9.94ZM31.47 15.64L31.47 15.64Q31.37 15.64 31.31 15.55L31.31 15.55L31.31 15.55Q31.25 15.47 31.25 15.36L31.25 15.36L31.25 15.36Q31.26 15.18 31.33 15.14L31.33 15.14L31.33 15.14Q31.39 15.11 31.57 15.11L31.57 15.11L31.57 15.11Q31.92 15.11 32.07 14.98L32.07 14.98L32.07 14.98Q32.23 14.85 32.26 14.67L32.26 14.67L32.26 14.67Q32.30 14.49 32.30 14.15L32.30 14.15L32.30 8.08L32.30 8.08Q32.30 7.71 32.28 7.55L32.28 7.55L32.28 7.55Q32.26 7.38 32.10 7.25L32.10 7.25L32.10 7.25Q31.95 7.13 31.58 7.13L31.58 7.13L31.58 7.13Q31.42 7.13 31.33 7.08L31.33 7.08L31.33 7.08Q31.25 7.03 31.25 6.85L31.25 6.85L31.25 6.85Q31.25 6.76 31.30 6.69L31.30 6.69L31.30 6.69Q31.36 6.61 31.47 6.59L31.47 6.59L31.47 6.59Q32.38 6.45 32.97 6.23L32.97 6.23L32.97 6.23Q33.21 6.16 33.29 6.15L33.29 6.15L33.33 6.15L33.33 6.15Q33.56 6.15 33.56 6.41L33.56 6.41L33.56 7.08L33.60 7.08L33.60 7.08Q34.01 6.71 34.55 6.46L34.55 6.46L34.55 6.46Q35.10 6.22 35.59 6.22L35.59 6.22L35.59 6.22Q36.43 6.22 37.09 6.64L37.09 6.64L37.09 6.64Q37.76 7.06 38.14 7.82L38.14 7.82L38.14 7.82Q38.51 8.58 38.51 9.55L38.51 9.55L38.51 9.55Q38.51 10.53 38.07 11.29L38.07 11.29L38.07 11.29Q37.62 12.05 36.88 12.47L36.88 12.47L36.88 12.47Q36.13 12.89 35.31 12.89L35.31 12.89L35.31 12.89Q34.73 12.89 34.34 12.78L34.34 12.78L34.34 12.78Q33.95 12.66 33.63 12.46L33.63 12.46L33.57 12.46L33.57 14.15L33.57 14.15Q33.57 14.49 33.61 14.67L33.61 14.67L33.61 14.67Q33.64 14.85 33.80 14.98L33.80 14.98L33.80 14.98Q33.95 15.11 34.30 15.11L34.30 15.11L34.38 15.11L34.38 15.11Q34.50 15.11 34.55 15.15L34.55 15.15L34.55 15.15Q34.61 15.19 34.62 15.36L34.62 15.36L34.62 15.36Q34.62 15.47 34.57 15.55L34.57 15.55L34.57 15.55Q34.51 15.64 34.40 15.64L34.40 15.64L34.40 15.64Q33.59 15.60 32.93 15.60L32.93 15.60L32.93 15.60Q32.30 15.60 31.47 15.64L31.47 15.64ZM35.20 12.42L35.20 12.42Q36.18 12.42 36.63 11.55L36.63 11.55L36.63 11.55Q37.09 10.68 37.09 9.59L37.09 9.59L37.09 9.59Q37.09 8.50 36.58 7.71L36.58 7.71L36.58 7.71Q36.08 6.92 35.08 6.92L35.08 6.92L35.08 6.92Q34.59 6.92 34.25 7.11L34.25 7.11L34.25 7.11Q33.91 7.29 33.57 7.64L33.57 7.64L33.57 11.40L33.57 11.40Q33.74 11.82 34.17 12.12L34.17 12.12L34.17 12.12Q34.59 12.42 35.20 12.42L35.20 12.42ZM39.65 12.77L39.65 12.77Q39.55 12.77 39.49 12.68L39.49 12.68L39.49 12.68Q39.42 12.60 39.42 12.49L39.42 12.49L39.42 12.49Q39.44 12.31 39.50 12.27L39.50 12.27L39.50 12.27Q39.56 12.24 39.75 12.24L39.75 12.24L39.75 12.24Q40.11 12.24 40.26 12.11L40.26 12.11L40.26 12.11Q40.42 11.98 40.45 11.82L40.45 11.82L40.45 11.82Q40.47 11.65 40.47 11.28L40.47 11.28L40.47 4.45L40.47 4.45Q40.47 4.09 40.45 3.92L40.45 3.92L40.45 3.92Q40.43 3.75 40.28 3.63L40.28 3.63L40.28 3.63Q40.12 3.50 39.76 3.50L39.76 3.50L39.76 3.50Q39.59 3.50 39.51 3.45L39.51 3.45L39.51 3.45Q39.42 3.40 39.42 3.22L39.42 3.22L39.42 3.22Q39.42 3.14 39.48 3.06L39.48 3.06L39.48 3.06Q39.54 2.98 39.65 2.97L39.65 2.97L39.65 2.97Q40.53 2.84 41.16 2.60L41.16 2.60L41.16 2.60Q41.36 2.53 41.48 2.52L41.48 2.52L41.52 2.52L41.52 2.52Q41.75 2.52 41.75 2.79L41.75 2.79L41.75 11.28L41.75 11.28Q41.75 11.65 41.78 11.82L41.78 11.82L41.78 11.82Q41.80 11.98 41.96 12.11L41.96 12.11L41.96 12.11Q42.11 12.24 42.48 12.24L42.48 12.24L42.56 12.24L42.56 12.24Q42.67 12.24 42.73 12.28L42.73 12.28L42.73 12.28Q42.78 12.32 42.80 12.49L42.80 12.49L42.80 12.49Q42.80 12.60 42.74 12.68L42.74 12.68L42.74 12.68Q42.69 12.77 42.57 12.77L42.57 12.77L42.57 12.77Q41.76 12.73 41.10 12.73L41.10 12.73L41.10 12.73Q40.47 12.73 39.65 12.77L39.65 12.77ZM45.46 12.89L45.46 12.89Q44.62 12.89 44.10 12.42L44.10 12.42L44.10 12.42Q43.58 11.94 43.58 11.23L43.58 11.23L43.58 11.23Q43.58 10.35 44.17 9.91L44.17 9.91L44.17 9.91Q44.76 9.46 45.57 9.33L45.57 9.33L45.57 9.33Q46.38 9.20 47.67 9.13L47.67 9.13L47.67 8.02L47.67 8.02Q47.67 7.34 47.33 6.98L47.33 6.98L47.33 6.98Q46.98 6.62 46.23 6.62L46.23 6.62L46.23 6.62Q45.79 6.62 45.47 6.89L45.47 6.89L45.47 6.89Q45.15 7.15 45.15 7.60L45.15 7.60L45.15 7.60Q45.15 7.83 45.26 7.97L45.26 7.97L45.26 7.97Q45.36 8.12 45.48 8.22L45.48 8.22L45.48 8.22Q45.60 8.32 45.60 8.33L45.60 8.33L45.60 8.33Q45.60 8.41 45.42 8.55L45.42 8.55L45.42 8.55Q45.25 8.68 45.00 8.68L45.00 8.68L45.00 8.68Q44.58 8.68 44.33 8.37L44.33 8.37L44.33 8.37Q44.09 8.06 44.09 7.64L44.09 7.64L44.09 7.64Q44.09 6.92 44.74 6.57L44.74 6.57L44.74 6.57Q45.39 6.22 46.31 6.22L46.31 6.22L46.31 6.22Q47.46 6.22 48.18 6.65L48.18 6.65L48.18 6.65Q48.90 7.08 48.90 8.26L48.90 8.26L48.90 11.52L48.90 11.52Q48.92 11.82 49.08 12.08L49.08 12.08L49.08 12.08Q49.25 12.35 49.63 12.35L49.63 12.35L49.63 12.35Q49.74 12.35 49.79 12.39L49.79 12.39L49.79 12.39Q49.84 12.43 49.84 12.57L49.84 12.57L49.84 12.57Q49.84 12.74 49.58 12.82L49.58 12.82L49.58 12.82Q49.32 12.89 49.07 12.89L49.07 12.89L49.07 12.89Q48.54 12.89 48.13 12.59L48.13 12.59L48.13 12.59Q47.73 12.28 47.67 11.76L47.67 11.76L47.67 11.76Q47.38 12.31 46.77 12.60L46.77 12.60L46.77 12.60Q46.16 12.89 45.46 12.89L45.46 12.89ZM45.91 12.14L45.91 12.14Q46.38 12.14 46.79 11.90L46.79 11.90L46.79 11.90Q47.19 11.66 47.43 11.25L47.43 11.25L47.43 11.25Q47.67 10.84 47.67 10.33L47.67 10.33L47.67 9.53L47.67 9.53Q46.20 9.65 45.60 10.01L45.60 10.01L45.60 10.01Q45.00 10.37 45.00 11.19L45.00 11.19L45.00 11.19Q45.00 12.14 45.91 12.14L45.91 12.14ZM50.81 12.77L50.81 12.77Q50.71 12.77 50.65 12.68L50.65 12.68L50.65 12.68Q50.58 12.60 50.58 12.49L50.58 12.49L50.58 12.49Q50.60 12.31 50.67 12.27L50.67 12.27L50.67 12.27Q50.74 12.24 50.92 12.24L50.92 12.24L50.92 12.24Q51.28 12.24 51.44 12.11L51.44 12.11L51.44 12.11Q51.59 11.98 51.61 11.82L51.61 11.82L51.61 11.82Q51.63 11.65 51.63 11.28L51.63 11.28L51.63 8.08L51.63 8.08Q51.63 7.71 51.61 7.55L51.61 7.55L51.61 7.55Q51.59 7.38 51.44 7.25L51.44 7.25L51.44 7.25Q51.28 7.13 50.92 7.13L50.92 7.13L50.92 7.13Q50.75 7.13 50.67 7.08L50.67 7.08L50.67 7.08Q50.58 7.03 50.58 6.85L50.58 6.85L50.58 6.85Q50.58 6.76 50.64 6.69L50.64 6.69L50.64 6.69Q50.69 6.61 50.81 6.59L50.81 6.59L50.81 6.59Q51.72 6.45 52.30 6.23L52.30 6.23L52.30 6.23Q52.54 6.16 52.63 6.15L52.63 6.15L52.67 6.15L52.67 6.15Q52.89 6.15 52.89 6.41L52.89 6.41L52.89 7.29L52.93 7.29L52.93 7.29Q53.34 6.92 53.59 6.71L53.59 6.71L53.59 6.71Q53.84 6.51 54.24 6.36L54.24 6.36L54.24 6.36Q54.64 6.22 55.19 6.22L55.19 6.22L55.19 6.22Q56.14 6.22 56.70 6.79L56.70 6.79L56.70 6.79Q57.26 7.36 57.26 8.30L57.26 8.30L57.26 11.28L57.26 11.28Q57.26 11.65 57.29 11.82L57.29 11.82L57.29 11.82Q57.32 11.98 57.47 12.11L57.47 12.11L57.47 12.11Q57.62 12.24 57.99 12.24L57.99 12.24L58.07 12.24L58.07 12.24Q58.18 12.24 58.24 12.28L58.24 12.28L58.24 12.28Q58.30 12.32 58.31 12.49L58.31 12.49L58.31 12.49Q58.31 12.60 58.25 12.68L58.25 12.68L58.25 12.68Q58.18 12.77 58.09 12.77L58.09 12.77L58.09 12.77Q57.27 12.73 56.62 12.73L56.62 12.73L56.62 12.73Q55.99 12.73 55.16 12.77L55.16 12.77L55.16 12.77Q55.06 12.77 55.00 12.68L55.00 12.68L55.00 12.68Q54.94 12.60 54.94 12.49L54.94 12.49L54.94 12.49Q54.95 12.31 55.01 12.27L55.01 12.27L55.01 12.27Q55.08 12.24 55.26 12.24L55.26 12.24L55.26 12.24Q55.62 12.24 55.78 12.11L55.78 12.11L55.78 12.11Q55.93 11.98 55.96 11.82L55.96 11.82L55.96 11.82Q55.99 11.65 55.99 11.28L55.99 11.28L55.99 8.32L55.99 8.32Q55.99 7.67 55.58 7.33L55.58 7.33L55.58 7.33Q55.17 6.99 54.64 6.99L54.64 6.99L54.64 6.99Q54.00 6.99 53.54 7.30L53.54 7.30L53.54 7.30Q53.07 7.62 52.91 7.95L52.91 7.95L52.91 11.28L52.91 11.28Q52.91 11.65 52.93 11.82L52.93 11.82L52.93 11.82Q52.96 11.98 53.12 12.11L53.12 12.11L53.12 12.11Q53.27 12.24 53.63 12.24L53.63 12.24L53.72 12.24L53.72 12.24Q53.83 12.24 53.89 12.28L53.89 12.28L53.89 12.28Q53.94 12.32 53.96 12.49L53.96 12.49L53.96 12.49Q53.96 12.60 53.90 12.68L53.90 12.68L53.90 12.68Q53.84 12.77 53.73 12.77L53.73 12.77L53.73 12.77Q52.92 12.73 52.26 12.73L52.26 12.73L52.26 12.73Q51.63 12.73 50.81 12.77L50.81 12.77ZM59.19 12.77L59.19 12.77Q59.09 12.77 59.03 12.68L59.03 12.68L59.03 12.68Q58.97 12.60 58.97 12.49L58.97 12.49L58.97 12.49Q58.98 12.31 59.05 12.27L59.05 12.27L59.05 12.27Q59.12 12.24 59.30 12.24L59.30 12.24L59.30 12.24Q59.67 12.24 59.82 12.11L59.82 12.11L59.82 12.11Q59.98 11.98 60.00 11.82L60.00 11.82L60.00 11.82Q60.02 11.65 60.02 11.28L60.02 11.28L60.02 8.08L60.02 8.08Q60.02 7.71 60.00 7.55L60.00 7.55L60.00 7.55Q59.98 7.38 59.82 7.25L59.82 7.25L59.82 7.25Q59.67 7.13 59.30 7.13L59.30 7.13L59.30 7.13Q59.14 7.13 59.05 7.08L59.05 7.08L59.05 7.08Q58.97 7.03 58.97 6.85L58.97 6.85L58.97 6.85Q58.97 6.76 59.02 6.69L59.02 6.69L59.02 6.69Q59.08 6.61 59.19 6.59L59.19 6.59L59.19 6.59Q60.10 6.45 60.69 6.23L60.69 6.23L60.69 6.23Q60.93 6.16 61.01 6.15L61.01 6.15L61.05 6.15L61.05 6.15Q61.28 6.15 61.28 6.41L61.28 6.41L61.28 7.29L61.32 7.29L61.32 7.29Q61.73 6.92 61.98 6.71L61.98 6.71L61.98 6.71Q62.23 6.51 62.63 6.36L62.63 6.36L62.63 6.36Q63.03 6.22 63.57 6.22L63.57 6.22L63.57 6.22Q64.53 6.22 65.09 6.79L65.09 6.79L65.09 6.79Q65.65 7.36 65.65 8.30L65.65 8.30L65.65 11.28L65.65 11.28Q65.65 11.65 65.67 11.82L65.67 11.82L65.67 11.82Q65.70 11.98 65.86 12.11L65.86 12.11L65.86 12.11Q66.01 12.24 66.37 12.24L66.37 12.24L66.46 12.24L66.46 12.24Q66.57 12.24 66.63 12.28L66.63 12.28L66.63 12.28Q66.68 12.32 66.70 12.49L66.70 12.49L66.70 12.49Q66.70 12.60 66.63 12.68L66.63 12.68L66.63 12.68Q66.57 12.77 66.47 12.77L66.47 12.77L66.47 12.77Q65.66 12.73 65.00 12.73L65.00 12.73L65.00 12.73Q64.37 12.73 63.55 12.77L63.55 12.77L63.55 12.77Q63.45 12.77 63.39 12.68L63.39 12.68L63.39 12.68Q63.32 12.60 63.32 12.49L63.32 12.49L63.32 12.49Q63.34 12.31 63.40 12.27L63.40 12.27L63.40 12.27Q63.46 12.24 63.64 12.24L63.64 12.24L63.64 12.24Q64.01 12.24 64.16 12.11L64.16 12.11L64.16 12.11Q64.32 11.98 64.34 11.82L64.34 11.82L64.34 11.82Q64.37 11.65 64.37 11.28L64.37 11.28L64.37 8.32L64.37 8.32Q64.37 7.67 63.97 7.33L63.97 7.33L63.97 7.33Q63.56 6.99 63.03 6.99L63.03 6.99L63.03 6.99Q62.38 6.99 61.92 7.30L61.92 7.30L61.92 7.30Q61.46 7.62 61.29 7.95L61.29 7.95L61.29 11.28L61.29 11.28Q61.29 11.65 61.32 11.82L61.32 11.82L61.32 11.82Q61.35 11.98 61.50 12.11L61.50 12.11L61.50 12.11Q61.66 12.24 62.02 12.24L62.02 12.24L62.10 12.24L62.10 12.24Q62.22 12.24 62.27 12.28L62.27 12.28L62.27 12.28Q62.33 12.32 62.34 12.49L62.34 12.49L62.34 12.49Q62.34 12.60 62.29 12.68L62.29 12.68L62.29 12.68Q62.23 12.77 62.12 12.77L62.12 12.77L62.12 12.77Q61.31 12.73 60.65 12.73L60.65 12.73L60.65 12.73Q60.02 12.73 59.19 12.77L59.19 12.77ZM70.74 12.89L70.74 12.89Q69.69 12.89 68.96 12.45L68.96 12.45L68.96 12.45Q68.22 12.00 67.84 11.23L67.84 11.23L67.84 11.23Q67.47 10.46 67.47 9.52L67.47 9.52L67.47 9.52Q67.47 8.69 67.85 7.93L67.85 7.93L67.85 7.93Q68.24 7.17 68.95 6.69L68.95 6.69L68.95 6.69Q69.66 6.22 70.59 6.22L70.59 6.22L70.59 6.22Q71.83 6.22 72.51 6.85L72.51 6.85L72.51 6.85Q73.18 7.49 73.28 8.57L73.28 8.57L73.28 8.57Q73.28 9.03 73.02 9.20L73.02 9.20L73.02 9.20Q72.77 9.37 72.30 9.37L72.30 9.37L68.89 9.37L68.89 9.37Q68.89 10.67 69.43 11.43L69.43 11.43L69.43 11.43Q69.97 12.19 71.11 12.19L71.11 12.19L71.11 12.19Q71.71 12.19 72.13 11.94L72.13 11.94L72.13 11.94Q72.55 11.68 72.93 11.06L72.93 11.06L72.93 11.06Q73.00 10.99 73.07 10.99L73.07 10.99L73.07 10.99Q73.16 10.99 73.23 11.05L73.23 11.05L73.23 11.05Q73.37 11.13 73.37 11.30L73.37 11.30L73.37 11.30Q73.37 11.38 73.35 11.42L73.35 11.42L73.35 11.42Q72.91 12.12 72.25 12.51L72.25 12.51L72.25 12.51Q71.58 12.89 70.74 12.89L70.74 12.89ZM68.89 8.83L71.18 8.83L71.18 8.83Q71.89 8.83 71.93 8.25L71.93 8.25L71.93 8.25Q71.93 7.60 71.58 7.15L71.58 7.15L71.58 7.15Q71.23 6.71 70.59 6.71L70.59 6.71L70.59 6.71Q69.87 6.71 69.41 7.27L69.41 7.27L69.41 7.27Q68.95 7.84 68.89 8.83L68.89 8.83ZM74.61 12.77L74.61 12.77Q74.51 12.77 74.45 12.68L74.45 12.68L74.45 12.68Q74.38 12.60 74.38 12.49L74.38 12.49L74.38 12.49Q74.40 12.31 74.47 12.27L74.47 12.27L74.47 12.27Q74.54 12.24 74.72 12.24L74.72 12.24L74.72 12.24Q75.08 12.24 75.24 12.11L75.24 12.11L75.24 12.11Q75.39 11.98 75.41 11.82L75.41 11.82L75.41 11.82Q75.43 11.65 75.43 11.28L75.43 11.28L75.43 8.08L75.43 8.08Q75.43 7.71 75.41 7.55L75.41 7.55L75.41 7.55Q75.39 7.38 75.24 7.25L75.24 7.25L75.24 7.25Q75.08 7.13 74.72 7.13L74.72 7.13L74.72 7.13Q74.55 7.13 74.47 7.08L74.47 7.08L74.47 7.08Q74.38 7.03 74.38 6.85L74.38 6.85L74.38 6.85Q74.38 6.76 74.44 6.69L74.44 6.69L74.44 6.69Q74.49 6.61 74.61 6.59L74.61 6.59L74.61 6.59Q75.52 6.45 76.10 6.23L76.10 6.23L76.10 6.23Q76.34 6.16 76.43 6.15L76.43 6.15L76.47 6.15L76.47 6.15Q76.69 6.15 76.69 6.41L76.69 6.41L76.69 7.28L76.73 7.28L76.73 7.28Q77.22 6.79 77.73 6.50L77.73 6.50L77.73 6.50Q78.23 6.22 78.64 6.22L78.64 6.22L78.64 6.22Q79.10 6.22 79.37 6.56L79.37 6.56L79.37 6.56Q79.65 6.90 79.65 7.35L79.65 7.35L79.65 7.35Q79.65 7.74 79.41 8.05L79.41 8.05L79.41 8.05Q79.17 8.36 78.75 8.36L78.75 8.36L78.75 8.36Q78.55 8.36 78.41 8.27L78.41 8.27L78.41 8.27Q78.26 8.19 78.25 8.13L78.25 8.13L78.25 8.13Q78.26 8.11 78.39 7.96L78.39 7.96L78.39 7.96Q78.51 7.81 78.51 7.62L78.51 7.62L78.51 7.62Q78.51 7.36 78.38 7.21L78.38 7.21L78.38 7.21Q78.25 7.06 78.02 7.06L78.02 7.06L78.02 7.06Q77.78 7.06 77.42 7.29L77.42 7.29L77.42 7.29Q77.06 7.52 76.71 7.87L76.71 7.87L76.71 11.28L76.71 11.28Q76.71 11.65 76.73 11.82L76.73 11.82L76.73 11.82Q76.76 11.98 76.92 12.11L76.92 12.11L76.92 12.11Q77.07 12.24 77.43 12.24L77.43 12.24L77.52 12.24L77.52 12.24Q77.63 12.24 77.69 12.28L77.69 12.28L77.69 12.28Q77.74 12.32 77.76 12.49L77.76 12.49L77.76 12.49Q77.76 12.60 77.70 12.68L77.70 12.68L77.70 12.68Q77.64 12.77 77.53 12.77L77.53 12.77L77.53 12.77Q76.72 12.73 76.06 12.73L76.06 12.73L76.06 12.73Q75.43 12.73 74.61 12.77L74.61 12.77Z"></path></g><defs data-v-fde0c5aa=""><linearGradient data-v-fde0c5aa="" gradientTransform="rotate(25)" id="1bc358bb-a73b-4a15-aa2d-d369581e7421" x1="0%" y1="0%" x2="100%" y2="0%"><stop data-v-fde0c5aa="" offset="0%" stop-color="#E90DCA" stop-opacity="1"></stop><stop data-v-fde0c5aa="" offset="100%" stop-color="#1536F1" stop-opacity="1"></stop></linearGradient></defs><g data-v-fde0c5aa="" id="46b7580e-7919-46d7-88e5-ce2884be365c" stroke="none" fill="url(#1bc358bb-a73b-4a15-aa2d-d369581e7421)" transform="matrix(1.5478990896226612,0,0,1.5478990896226612,40,125.23361456603742)"><path d="M4.029 14.362L14.362 4.028l.707.707L4.736 15.07zM17.135 27.47L27.47 17.135l.707.707-10.333 10.333zM4.029 17.841l.707-.707 10.333 10.334-.707.707zM17.135 4.735l.708-.707L28.176 14.36l-.707.707z"></path><g><path d="M16 1.414l1.683 1.683L16 4.779l-1.683-1.683L16 1.414M16 0l-3.097 3.097L16 6.194l3.097-3.097L16 0zM16 27.221l1.683 1.683L16 30.586l-1.683-1.683L16 27.221m0-1.415l-3.097 3.097L16 32l3.097-3.097L16 25.806zM3.097 14.317L4.779 16l-1.683 1.683L1.414 16l1.683-1.683m0-1.414L0 16l3.097 3.097L6.194 16l-3.097-3.097zM28.903 14.317L30.586 16l-1.683 1.683L27.221 16l1.682-1.683m0-1.414L25.806 16l3.097 3.097L32 16l-3.097-3.097z"></path></g></g><defs data-v-fde0c5aa=""><!----></defs><g data-v-fde0c5aa="" id="0996ee88-577e-4755-836f-2dbbe11ba598" fill="#000000" transform="matrix(0.36531928825735455,0,0,0.36531928825735455,101.9994046931336,161.7377273071759)"><path d="M10.05 3.78L10.05 13.02L9.38 13.02L9.38 6.13L9.46 4.45L9.45 4.45L6.08 13.02L5.43 13.02L2.06 4.45L2.04 4.45L2.13 6.13L2.13 13.02L1.46 13.02L1.46 3.78L2.51 3.78L5.29 10.78L5.75 12.19L5.77 12.19L6.22 10.79L9.00 3.78L10.05 3.78ZM26.25 13.02L25.09 10.12L20.66 10.12L19.52 13.02L18.77 13.02L22.47 3.78L23.30 3.78L26.99 13.02L26.25 13.02ZM20.93 9.48L24.84 9.48L23.23 5.45L22.89 4.47L22.88 4.47L22.54 5.42L20.93 9.48ZM42.81 3.78L42.81 13.02L41.94 13.02L37.04 5.77L36.36 4.54L36.34 4.54L36.39 5.70L36.39 13.02L35.71 13.02L35.71 3.78L36.60 3.78L41.48 11.02L42.18 12.26L42.15 11.10L42.15 3.78L42.81 3.78ZM59.01 13.02L57.85 10.12L53.42 10.12L52.28 13.02L51.53 13.02L55.23 3.78L56.06 3.78L59.75 13.02L59.01 13.02ZM53.69 9.48L57.60 9.48L55.99 5.45L55.65 4.47L55.64 4.47L55.30 5.42L53.69 9.48ZM71.79 8.50L75.59 8.50L75.59 13.02L75.03 13.02L75.00 11.41L75.00 11.41Q74.62 12.25 73.81 12.71L73.81 12.71L73.81 12.71Q73.01 13.16 71.82 13.16L71.82 13.16L71.82 13.16Q70.56 13.16 69.61 12.58L69.61 12.58L69.61 12.58Q68.67 12.00 68.16 10.92L68.16 10.92L68.16 10.92Q67.65 9.84 67.65 8.40L67.65 8.40L67.65 8.40Q67.65 6.96 68.17 5.88L68.17 5.88L68.17 5.88Q68.70 4.80 69.65 4.22L69.65 4.22L69.65 4.22Q70.60 3.64 71.86 3.64L71.86 3.64L71.86 3.64Q73.28 3.64 74.17 4.20L74.17 4.20L74.17 4.20Q75.07 4.76 75.52 5.91L75.52 5.91L74.87 6.24L74.87 6.24Q74.55 5.28 73.79 4.78L73.79 4.78L73.79 4.78Q73.02 4.28 71.86 4.28L71.86 4.28L71.86 4.28Q70.83 4.28 70.04 4.78L70.04 4.78L70.04 4.78Q69.26 5.28 68.82 6.21L68.82 6.21L68.82 6.21Q68.39 7.14 68.39 8.40L68.39 8.40L68.39 8.40Q68.39 10.32 69.31 11.42L69.31 11.42L69.31 11.42Q70.22 12.52 71.85 12.52L71.85 12.52L71.85 12.52Q72.86 12.52 73.56 12.12L73.56 12.12L73.56 12.12Q74.26 11.72 74.59 11.07L74.59 11.07L74.59 11.07Q74.93 10.42 74.93 9.67L74.93 9.67L74.93 9.16L71.79 9.16L71.79 8.50ZM85.76 12.38L91.60 12.38L91.60 13.02L85.06 13.02L85.06 3.78L91.38 3.78L91.38 4.42L85.76 4.42L85.76 7.99L90.20 7.99L90.20 8.65L85.76 8.65L85.76 12.38ZM117.47 3.78L114.20 9.42L114.20 13.02L113.50 13.02L113.50 9.42L110.22 3.78L111.05 3.78L113.85 8.69L116.65 3.78L117.47 3.78ZM129.44 3.64L129.44 3.64Q130.75 3.64 131.71 4.22L131.71 4.22L131.71 4.22Q132.66 4.80 133.18 5.87L133.18 5.87L133.18 5.87Q133.70 6.94 133.70 8.40L133.70 8.40L133.70 8.40Q133.70 9.86 133.18 10.93L133.18 10.93L133.18 10.93Q132.66 12.00 131.71 12.58L131.71 12.58L131.71 12.58Q130.75 13.16 129.44 13.16L129.44 13.16L129.44 13.16Q128.14 13.16 127.18 12.58L127.18 12.58L127.18 12.58Q126.22 12.00 125.71 10.93L125.71 10.93L125.71 10.93Q125.19 9.86 125.19 8.40L125.19 8.40L125.19 8.40Q125.19 6.94 125.71 5.87L125.71 5.87L125.71 5.87Q126.22 4.80 127.18 4.22L127.18 4.22L127.18 4.22Q128.14 3.64 129.44 3.64L129.44 3.64ZM129.44 4.28L129.44 4.28Q128.37 4.28 127.58 4.78L127.58 4.78L127.58 4.78Q126.78 5.28 126.36 6.21L126.36 6.21L126.36 6.21Q125.93 7.14 125.93 8.40L125.93 8.40L125.93 8.40Q125.93 9.66 126.36 10.59L126.36 10.59L126.36 10.59Q126.78 11.52 127.58 12.02L127.58 12.02L127.58 12.02Q128.37 12.52 129.44 12.52L129.44 12.52L129.44 12.52Q130.52 12.52 131.32 12.02L131.32 12.02L131.32 12.02Q132.12 11.52 132.55 10.59L132.55 10.59L132.55 10.59Q132.97 9.66 132.97 8.40L132.97 8.40L132.97 8.40Q132.97 7.14 132.55 6.21L132.55 6.21L132.55 6.21Q132.12 5.28 131.32 4.78L131.32 4.78L131.32 4.78Q130.52 4.28 129.44 4.28L129.44 4.28ZM150.04 3.78L150.04 9.65L150.04 9.65Q150.04 11.35 149.11 12.26L149.11 12.26L149.11 12.26Q148.19 13.16 146.48 13.16L146.48 13.16L146.48 13.16Q144.77 13.16 143.84 12.26L143.84 12.26L143.84 12.26Q142.91 11.35 142.91 9.65L142.91 9.65L142.91 3.78L143.61 3.78L143.61 9.51L143.61 9.51Q143.61 10.99 144.34 11.75L144.34 11.75L144.34 11.75Q145.07 12.52 146.48 12.52L146.48 12.52L146.48 12.52Q147.88 12.52 148.61 11.75L148.61 11.75L148.61 11.75Q149.34 10.99 149.34 9.51L149.34 9.51L149.34 3.78L150.04 3.78ZM166.78 13.02L165.96 13.02L163.31 9.02L163.27 9.02L160.54 9.02L160.54 13.02L159.84 13.02L159.84 3.78L163.27 3.78L163.27 3.78Q164.65 3.78 165.47 4.48L165.47 4.48L165.47 4.48Q166.29 5.18 166.29 6.40L166.29 6.40L166.29 6.40Q166.29 7.41 165.70 8.07L165.70 8.07L165.70 8.07Q165.12 8.74 164.09 8.93L164.09 8.93L166.78 13.02ZM160.54 4.42L160.54 8.36L163.25 8.36L163.25 8.36Q164.37 8.36 164.97 7.85L164.97 7.85L164.97 7.85Q165.56 7.35 165.56 6.40L165.56 6.40L165.56 6.40Q165.56 5.45 164.97 4.93L164.97 4.93L164.97 4.93Q164.37 4.42 163.25 4.42L163.25 4.42L160.54 4.42ZM193.10 3.78L193.10 4.42L189.73 4.42L189.73 13.02L189.03 13.02L189.03 4.42L185.65 4.42L185.65 3.78L193.10 3.78ZM202.57 12.38L208.40 12.38L208.40 13.02L201.87 13.02L201.87 3.78L208.18 3.78L208.18 4.42L202.57 4.42L202.57 7.99L207.00 7.99L207.00 8.65L202.57 8.65L202.57 12.38ZM223.72 13.02L222.56 10.12L218.13 10.12L216.99 13.02L216.24 13.02L219.94 3.78L220.77 3.78L224.46 13.02L223.72 13.02ZM218.40 9.48L222.31 9.48L220.70 5.45L220.36 4.47L220.35 4.47L220.01 5.42L218.40 9.48ZM241.78 3.78L241.78 13.02L241.11 13.02L241.11 6.13L241.19 4.45L241.18 4.45L237.80 13.02L237.16 13.02L233.79 4.45L233.77 4.45L233.86 6.13L233.86 13.02L233.18 13.02L233.18 3.78L234.23 3.78L237.02 10.78L237.48 12.19L237.50 12.19L237.94 10.79L240.73 3.78L241.78 3.78ZM254.55 3.64L254.55 3.64Q257.15 3.64 258.03 5.68L258.03 5.68L257.43 6.17L257.43 6.17Q257.08 5.18 256.39 4.73L256.39 4.73L256.39 4.73Q255.70 4.28 254.56 4.28L254.56 4.28L254.56 4.28Q253.75 4.28 253.15 4.54L253.15 4.54L253.15 4.54Q252.55 4.79 252.23 5.22L252.23 5.22L252.23 5.22Q251.92 5.66 251.92 6.20L251.92 6.20L251.92 6.20Q251.92 6.73 252.18 7.08L252.18 7.08L252.18 7.08Q252.45 7.43 253.09 7.68L253.09 7.68L253.09 7.68Q253.72 7.92 254.84 8.12L254.84 8.12L254.84 8.12Q256.65 8.43 257.40 9.02L257.40 9.02L257.40 9.02Q258.16 9.60 258.16 10.64L258.16 10.64L258.16 10.64Q258.16 11.38 257.73 11.96L257.73 11.96L257.73 11.96Q257.29 12.53 256.50 12.84L256.50 12.84L256.50 12.84Q255.71 13.16 254.69 13.16L254.69 13.16L254.69 13.16Q253.23 13.16 252.23 12.58L252.23 12.58L252.23 12.58Q251.23 12.00 250.87 10.95L250.87 10.95L251.48 10.47L251.48 10.47Q251.76 11.47 252.61 11.99L252.61 11.99L252.61 11.99Q253.46 12.52 254.70 12.52L254.70 12.52L254.70 12.52Q255.91 12.52 256.67 12.03L256.67 12.03L256.67 12.03Q257.43 11.54 257.43 10.68L257.43 10.68L257.43 10.68Q257.43 9.94 256.81 9.51L256.81 9.51L256.81 9.51Q256.19 9.07 254.65 8.81L254.65 8.81L254.65 8.81Q253.34 8.58 252.59 8.26L252.59 8.26L252.59 8.26Q251.83 7.94 251.50 7.46L251.50 7.46L251.50 7.46Q251.17 6.99 251.17 6.27L251.17 6.27L251.17 6.27Q251.17 5.56 251.59 4.96L251.59 4.96L251.59 4.96Q252.00 4.35 252.76 4.00L252.76 4.00L252.76 4.00Q253.53 3.64 254.55 3.64L254.55 3.64ZM279.44 12.38L285.28 12.38L285.28 13.02L278.74 13.02L278.74 3.78L285.05 3.78L285.05 4.42L279.44 4.42L279.44 7.99L283.88 7.99L283.88 8.65L279.44 8.65L279.44 12.38ZM300.61 4.42L295.01 4.42L295.01 7.99L299.45 7.99L299.45 8.65L295.01 8.65L295.01 13.02L294.31 13.02L294.31 3.78L300.61 3.78L300.61 4.42ZM315.78 4.42L310.18 4.42L310.18 7.99L314.62 7.99L314.62 8.65L310.18 8.65L310.18 13.02L309.48 13.02L309.48 3.78L315.78 3.78L315.78 4.42ZM325.36 12.38L331.20 12.38L331.20 13.02L324.66 13.02L324.66 3.78L330.97 3.78L330.97 4.42L325.36 4.42L325.36 7.99L329.80 7.99L329.80 8.65L325.36 8.65L325.36 12.38ZM347.28 10.68L347.28 10.68Q346.89 11.86 345.92 12.51L345.92 12.51L345.92 12.51Q344.95 13.16 343.59 13.16L343.59 13.16L343.59 13.16Q342.33 13.16 341.38 12.58L341.38 12.58L341.38 12.58Q340.42 12.00 339.91 10.92L339.91 10.92L339.91 10.92Q339.39 9.84 339.39 8.40L339.39 8.40L339.39 8.40Q339.39 6.96 339.91 5.88L339.91 5.88L339.91 5.88Q340.42 4.80 341.38 4.22L341.38 4.22L341.38 4.22Q342.33 3.64 343.57 3.64L343.57 3.64L343.57 3.64Q346.35 3.64 347.16 5.92L347.16 5.92L346.47 6.24L346.47 6.24Q346.15 5.26 345.44 4.77L345.44 4.77L345.44 4.77Q344.74 4.28 343.62 4.28L343.62 4.28L343.62 4.28Q342.58 4.28 341.79 4.78L341.79 4.78L341.79 4.78Q341.00 5.28 340.56 6.21L340.56 6.21L340.56 6.21Q340.13 7.14 340.13 8.40L340.13 8.40L340.13 8.40Q340.13 9.66 340.56 10.59L340.56 10.59L340.56 10.59Q340.98 11.52 341.76 12.02L341.76 12.02L341.76 12.02Q342.54 12.52 343.59 12.52L343.59 12.52L343.59 12.52Q344.71 12.52 345.49 11.97L345.49 11.97L345.49 11.97Q346.28 11.42 346.58 10.42L346.58 10.42L347.28 10.68ZM362.60 3.78L362.60 4.42L359.23 4.42L359.23 13.02L358.53 13.02L358.53 4.42L355.15 4.42L355.15 3.78L362.60 3.78ZM372.06 3.78L372.06 13.02L371.36 13.02L371.36 3.78L372.06 3.78ZM388.79 3.78L385.24 13.02L384.41 13.02L380.84 3.78L381.60 3.78L384.33 10.93L384.82 12.36L385.31 10.93L388.05 3.78L388.79 3.78ZM398.27 12.38L404.11 12.38L404.11 13.02L397.57 13.02L397.57 3.78L403.89 3.78L403.89 4.42L398.27 4.42L398.27 7.99L402.71 7.99L402.71 8.65L398.27 8.65L398.27 12.38ZM413.84 12.38L419.38 12.38L419.38 13.02L413.14 13.02L413.14 3.78L413.84 3.78L413.84 12.38ZM432.50 3.78L429.23 9.42L429.23 13.02L428.53 13.02L428.53 9.42L425.25 3.78L426.08 3.78L428.88 8.69L431.68 3.78L432.50 3.78Z"></path></g></svg>