<?xml version="1.0" encoding="UTF-8" standalone="no"?>
<!-- Created with Inkscape (http://www.inkscape.org/) -->

<svg
   width="391.4953mm"
   height="93.150528mm"
   version="1.1"
   viewBox="0 0 391.49529 93.150528"
   id="svg843"
   sodipodi:docname="logo.svg"
   inkscape:version="1.1 (c4e8f9e, 2021-05-24)"
   xmlns:inkscape="http://www.inkscape.org/namespaces/inkscape"
   xmlns:sodipodi="http://sodipodi.sourceforge.net/DTD/sodipodi-0.dtd"
   xmlns:xlink="http://www.w3.org/1999/xlink"
   xmlns="http://www.w3.org/2000/svg"
   xmlns:svg="http://www.w3.org/2000/svg">
  <sodipodi:namedview
     id="namedview845"
     pagecolor="#ffffff"
     bordercolor="#111111"
     borderopacity="1"
     inkscape:pageshadow="0"
     inkscape:pageopacity="0"
     inkscape:pagecheckerboard="1"
     inkscape:document-units="mm"
     showgrid="false"
     inkscape:zoom="0.55678311"
     inkscape:cx="795.64195"
     inkscape:cy="394.22891"
     inkscape:window-width="1369"
     inkscape:window-height="847"
     inkscape:window-x="986"
     inkscape:window-y="1465"
     inkscape:window-maximized="1"
     inkscape:current-layer="svg843" />
  <defs
     id="defs831">
    <linearGradient
       id="1bc358bb-a73b-4a15-aa2d-d369581e7421"
       data-v-fde0c5aa=""
       gradientTransform="rotate(25)">
      <stop
         stop-color="#E90DCA"
         data-v-fde0c5aa=""
         offset="0"
         id="stop824" />
      <stop
         stop-color="#1536F1"
         data-v-fde0c5aa=""
         offset="1"
         id="stop826" />
    </linearGradient>
    <linearGradient
       id="linearGradient1649"
       x1="4.0289001"
       x2="28.176001"
       y1="4.0281"
       y2="4.0281"
       gradientTransform="scale(1,0.99998)"
       gradientUnits="userSpaceOnUse"
       xlink:href="#1bc358bb-a73b-4a15-aa2d-d369581e7421" />
    <linearGradient
       id="linearGradient1651"
       x2="32"
       gradientUnits="userSpaceOnUse"
       xlink:href="#1bc358bb-a73b-4a15-aa2d-d369581e7421" />
    <linearGradient
       inkscape:collect="always"
       xlink:href="#1bc358bb-a73b-4a15-aa2d-d369581e7421"
       id="linearGradient931"
       gradientUnits="userSpaceOnUse"
       x2="32" />
  </defs>
  <g
     id="b40ac796-8972-4a07-9aa3-d5963596243b"
     transform="matrix(3.7461074,0,0,3.7461074,93.117855,12.367389)"
     data-v-fde0c5aa="">
    <path
       d="m 0.84,12.77 q -0.11,0 -0.17,-0.09 -0.07,-0.09 -0.07,-0.22 0.02,-0.21 0.09,-0.25 0.07,-0.04 0.26,-0.04 0.41,0 0.6,-0.15 0.2,-0.15 0.25,-0.36 0.05,-0.22 0.06,-0.57 V 5.53 Q 1.85,5.18 1.8,4.96 1.75,4.75 1.55,4.6 1.36,4.45 0.95,4.45 H 0.87 Q 0.73,4.45 0.67,4.4 0.62,4.35 0.6,4.16 0.6,4.03 0.67,3.94 0.73,3.85 0.84,3.85 1.75,3.89 2.51,3.89 h 4.04 q 0.37,0 0.37,0.34 l 0.04,1.96 q 0,0.12 -0.13,0.2 Q 6.71,6.47 6.58,6.47 6.41,6.47 6.28,6.41 6.15,6.34 6.13,6.22 6.03,5.53 5.9,5.17 5.77,4.82 5.51,4.64 5.25,4.47 4.77,4.45 H 3.25 v 3.64 h 2.5 q 0.12,0.02 0.17,0.11 0.06,0.09 0.06,0.21 0,0.12 -0.06,0.2 -0.05,0.08 -0.17,0.08 h -2.5 v 2.4 q 0.01,0.35 0.06,0.57 0.05,0.21 0.25,0.36 0.19,0.15 0.6,0.15 h 0.08 q 0.13,0 0.19,0.05 0.06,0.04 0.08,0.24 0,0.13 -0.06,0.22 -0.07,0.09 -0.19,0.09 -0.9,-0.04 -1.74,-0.04 -0.77,0 -1.68,0.04 z m 9.53,0.19 q -0.68,0 -1.17,-0.5 -0.49,-0.5 -0.49,-1.44 V 6.9 L 7.9,6.93 Q 7.81,6.93 7.76,6.85 7.7,6.78 7.7,6.68 7.7,6.55 7.75,6.46 7.8,6.37 7.9,6.36 8.39,6.26 8.66,6.04 8.93,5.82 9.06,5.57 9.18,5.31 9.37,4.77 9.44,4.59 9.67,4.59 q 0.1,0 0.2,0.05 0.1,0.05 0.1,0.15 l -0.1,1.59 1.64,-0.09 h 0.03 q 0.18,0 0.18,0.26 0,0.16 -0.05,0.29 -0.05,0.13 -0.12,0.13 L 9.98,6.93 v 4.26 q 0,0.46 0.19,0.77 0.19,0.3 0.62,0.3 0.44,0 0.77,-0.15 0.19,-0.07 0.23,-0.07 0.1,0 0.15,0.08 0.06,0.07 0.11,0.2 0.02,0.03 0.02,0.07 0,0.06 -0.09,0.13 -0.4,0.26 -0.76,0.35 -0.36,0.09 -0.85,0.09 z m 5.31,0 q -0.69,0 -1.18,-0.5 -0.49,-0.5 -0.49,-1.44 V 6.9 L 13.2,6.93 q -0.08,0 -0.14,-0.08 -0.05,-0.07 -0.05,-0.17 0,-0.13 0.04,-0.22 0.05,-0.09 0.15,-0.1 0.49,-0.1 0.76,-0.32 0.28,-0.22 0.4,-0.47 0.13,-0.26 0.31,-0.8 0.07,-0.18 0.31,-0.18 0.1,0 0.2,0.05 0.09,0.05 0.09,0.15 l -0.09,1.59 1.63,-0.09 h 0.03 q 0.18,0 0.18,0.26 0,0.16 -0.04,0.29 -0.05,0.13 -0.12,0.13 L 15.29,6.93 v 4.26 q 0,0.46 0.19,0.77 0.19,0.3 0.62,0.3 0.43,0 0.77,-0.15 0.18,-0.07 0.22,-0.07 0.1,0 0.16,0.08 0.05,0.07 0.11,0.2 0.01,0.03 0.01,0.07 0,0.06 -0.08,0.13 -0.41,0.26 -0.76,0.35 -0.36,0.09 -0.85,0.09 z m 2.73,-0.19 q -0.1,0 -0.15,-0.09 -0.06,-0.09 -0.06,-0.19 0.01,-0.17 0.07,-0.21 0.06,-0.04 0.17,-0.04 0.31,0 0.5,-0.09 0.2,-0.08 0.34,-0.22 0.14,-0.14 0.45,-0.52 0.35,-0.39 1.41,-1.71 L 19.54,7.45 Q 19.36,7.21 19.16,7.08 18.96,6.94 18.66,6.89 18.62,6.87 18.51,6.86 18.4,6.85 18.37,6.79 18.34,6.73 18.34,6.59 q 0,-0.16 0.09,-0.21 0.09,-0.04 0.23,-0.04 0.13,-0.01 0.17,-0.01 1.43,-0.07 2.07,0.78 l 0.27,0.39 q 0.36,0.62 0.8,1.19 L 22.9,7.48 q 0.24,-0.33 0.24,-0.45 0,-0.09 -0.12,-0.11 -0.13,-0.03 -0.47,-0.05 h -0.08 q -0.11,0 -0.16,-0.04 -0.05,-0.04 -0.06,-0.21 0,-0.1 0.05,-0.19 0.04,-0.09 0.14,-0.09 0.8,0.04 1.18,0.04 0.39,0 1.2,-0.04 0.1,0 0.16,0.09 0.05,0.09 0.05,0.19 -0.01,0.16 -0.07,0.2 -0.05,0.04 -0.13,0.05 -0.08,0 -0.11,0 -0.4,0.02 -0.6,0.17 -0.21,0.14 -0.61,0.66 -0.14,0.15 -0.45,0.56 -0.55,0.69 -0.73,0.91 1.15,1.48 1.71,2.24 0.26,0.38 0.53,0.6 0.27,0.23 0.59,0.23 h 0.08 q 0.11,0 0.17,0.04 0.06,0.04 0.07,0.21 0,0.11 -0.06,0.19 -0.07,0.09 -0.16,0.09 -0.83,-0.04 -1.35,-0.04 -0.66,0 -1.48,0.04 -0.1,0 -0.16,-0.09 -0.07,-0.08 -0.07,-0.19 0.02,-0.18 0.08,-0.22 0.06,-0.03 0.25,-0.03 0.29,0 0.29,-0.2 0,-0.14 -0.2,-0.41 l -1.09,-1.45 -1.2,1.45 q -0.24,0.31 -0.24,0.42 0,0.1 0.14,0.14 0.14,0.05 0.45,0.05 h 0.08 q 0.11,0 0.16,0.04 0.05,0.04 0.07,0.21 0,0.1 -0.05,0.19 -0.05,0.09 -0.15,0.09 -0.8,-0.04 -1.18,-0.04 -0.37,0 -1.2,0.04 z M 26.7,9.94 q -0.14,0 -0.23,-0.15 -0.09,-0.14 -0.09,-0.3 0,-0.15 0.09,-0.3 0.09,-0.15 0.23,-0.15 h 3.06 q 0.14,0 0.24,0.15 0.09,0.15 0.09,0.3 0,0.16 -0.09,0.3 -0.1,0.15 -0.24,0.15 z m 4.77,5.7 q -0.1,0 -0.16,-0.09 -0.06,-0.08 -0.06,-0.19 0.01,-0.18 0.08,-0.22 0.06,-0.03 0.24,-0.03 0.35,0 0.5,-0.13 0.16,-0.13 0.19,-0.31 0.04,-0.18 0.04,-0.52 V 8.08 Q 32.3,7.71 32.28,7.55 32.26,7.38 32.1,7.25 31.95,7.13 31.58,7.13 q -0.16,0 -0.25,-0.05 -0.08,-0.05 -0.08,-0.23 0,-0.09 0.05,-0.16 0.06,-0.08 0.17,-0.1 0.91,-0.14 1.5,-0.36 0.24,-0.07 0.32,-0.08 h 0.04 q 0.23,0 0.23,0.26 v 0.67 h 0.04 q 0.41,-0.37 0.95,-0.62 0.55,-0.24 1.04,-0.24 0.84,0 1.5,0.42 0.67,0.42 1.05,1.18 0.37,0.76 0.37,1.73 0,0.98 -0.44,1.74 -0.45,0.76 -1.19,1.18 -0.75,0.42 -1.57,0.42 -0.58,0 -0.97,-0.11 -0.39,-0.12 -0.71,-0.32 h -0.06 v 1.69 q 0,0.34 0.04,0.52 0.03,0.18 0.19,0.31 0.15,0.13 0.5,0.13 h 0.08 q 0.12,0 0.17,0.04 0.06,0.04 0.07,0.21 0,0.11 -0.05,0.19 -0.06,0.09 -0.17,0.09 -0.81,-0.04 -1.47,-0.04 -0.63,0 -1.46,0.04 z m 3.73,-3.22 q 0.98,0 1.43,-0.87 0.46,-0.87 0.46,-1.96 0,-1.09 -0.51,-1.88 -0.5,-0.79 -1.5,-0.79 -0.49,0 -0.83,0.19 -0.34,0.18 -0.68,0.53 v 3.76 q 0.17,0.42 0.6,0.72 0.42,0.3 1.03,0.3 z m 4.45,0.35 q -0.1,0 -0.16,-0.09 -0.07,-0.08 -0.07,-0.19 0.02,-0.18 0.08,-0.22 0.06,-0.03 0.25,-0.03 0.36,0 0.51,-0.13 0.16,-0.13 0.19,-0.29 0.02,-0.17 0.02,-0.54 V 4.45 Q 40.47,4.09 40.45,3.92 40.43,3.75 40.28,3.63 40.12,3.5 39.76,3.5 39.59,3.5 39.51,3.45 39.42,3.4 39.42,3.22 q 0,-0.08 0.06,-0.16 0.06,-0.08 0.17,-0.09 0.88,-0.13 1.51,-0.37 0.2,-0.07 0.32,-0.08 h 0.04 q 0.23,0 0.23,0.27 v 8.49 q 0,0.37 0.03,0.54 0.02,0.16 0.18,0.29 0.15,0.13 0.52,0.13 h 0.08 q 0.11,0 0.17,0.04 0.05,0.04 0.07,0.21 0,0.11 -0.06,0.19 -0.05,0.09 -0.17,0.09 -0.81,-0.04 -1.47,-0.04 -0.63,0 -1.45,0.04 z m 5.81,0.12 q -0.84,0 -1.36,-0.47 -0.52,-0.48 -0.52,-1.19 0,-0.88 0.59,-1.32 0.59,-0.45 1.4,-0.58 0.81,-0.13 2.1,-0.2 V 8.02 q 0,-0.68 -0.34,-1.04 -0.35,-0.36 -1.1,-0.36 -0.44,0 -0.76,0.27 -0.32,0.26 -0.32,0.71 0,0.23 0.11,0.37 0.1,0.15 0.22,0.25 0.12,0.1 0.12,0.11 0,0.08 -0.18,0.22 -0.17,0.13 -0.42,0.13 -0.42,0 -0.67,-0.31 -0.24,-0.31 -0.24,-0.73 0,-0.72 0.65,-1.07 0.65,-0.35 1.57,-0.35 1.15,0 1.87,0.43 0.72,0.43 0.72,1.61 v 3.26 q 0.02,0.3 0.18,0.56 0.17,0.27 0.55,0.27 0.11,0 0.16,0.04 0.05,0.04 0.05,0.18 0,0.17 -0.26,0.25 -0.26,0.07 -0.51,0.07 -0.53,0 -0.94,-0.3 -0.4,-0.31 -0.46,-0.83 -0.29,0.55 -0.9,0.84 -0.61,0.29 -1.31,0.29 z m 0.45,-0.75 q 0.47,0 0.88,-0.24 0.4,-0.24 0.64,-0.65 0.24,-0.41 0.24,-0.92 V 9.53 Q 46.2,9.65 45.6,10.01 45,10.37 45,11.19 q 0,0.95 0.91,0.95 z m 4.9,0.63 q -0.1,0 -0.16,-0.09 -0.07,-0.08 -0.07,-0.19 0.02,-0.18 0.09,-0.22 0.07,-0.03 0.25,-0.03 0.36,0 0.52,-0.13 0.15,-0.13 0.17,-0.29 0.02,-0.17 0.02,-0.54 v -3.2 q 0,-0.37 -0.02,-0.53 -0.02,-0.17 -0.17,-0.3 -0.16,-0.12 -0.52,-0.12 -0.17,0 -0.25,-0.05 -0.09,-0.05 -0.09,-0.23 0,-0.09 0.06,-0.16 0.05,-0.08 0.17,-0.1 0.91,-0.14 1.49,-0.36 0.24,-0.07 0.33,-0.08 h 0.04 q 0.22,0 0.22,0.26 v 0.88 h 0.04 q 0.41,-0.37 0.66,-0.58 0.25,-0.2 0.65,-0.35 0.4,-0.14 0.95,-0.14 0.95,0 1.51,0.57 0.56,0.57 0.56,1.51 v 2.98 q 0,0.37 0.03,0.54 0.03,0.16 0.18,0.29 0.15,0.13 0.52,0.13 h 0.08 q 0.11,0 0.17,0.04 0.06,0.04 0.07,0.21 0,0.11 -0.06,0.19 -0.07,0.09 -0.16,0.09 -0.82,-0.04 -1.47,-0.04 -0.63,0 -1.46,0.04 -0.1,0 -0.16,-0.09 -0.06,-0.08 -0.06,-0.19 0.01,-0.18 0.07,-0.22 0.07,-0.03 0.25,-0.03 0.36,0 0.52,-0.13 0.15,-0.13 0.18,-0.29 0.03,-0.17 0.03,-0.54 V 8.32 q 0,-0.65 -0.41,-0.99 -0.41,-0.34 -0.94,-0.34 -0.64,0 -1.1,0.31 -0.47,0.32 -0.63,0.65 v 3.33 q 0,0.37 0.02,0.54 0.03,0.16 0.19,0.29 0.15,0.13 0.51,0.13 h 0.09 q 0.11,0 0.17,0.04 0.05,0.04 0.07,0.21 0,0.11 -0.06,0.19 -0.06,0.09 -0.17,0.09 -0.81,-0.04 -1.47,-0.04 -0.63,0 -1.45,0.04 z m 8.38,0 q -0.1,0 -0.16,-0.09 -0.06,-0.08 -0.06,-0.19 0.01,-0.18 0.08,-0.22 0.07,-0.03 0.25,-0.03 0.37,0 0.52,-0.13 0.16,-0.13 0.18,-0.29 0.02,-0.17 0.02,-0.54 V 8.08 Q 60.02,7.71 60,7.55 59.98,7.38 59.82,7.25 59.67,7.13 59.3,7.13 q -0.16,0 -0.25,-0.05 -0.08,-0.05 -0.08,-0.23 0,-0.09 0.05,-0.16 0.06,-0.08 0.17,-0.1 0.91,-0.14 1.5,-0.36 0.24,-0.07 0.32,-0.08 h 0.04 q 0.23,0 0.23,0.26 v 0.88 h 0.04 q 0.41,-0.37 0.66,-0.58 0.25,-0.2 0.65,-0.35 0.4,-0.14 0.94,-0.14 0.96,0 1.52,0.57 0.56,0.57 0.56,1.51 v 2.98 q 0,0.37 0.02,0.54 0.03,0.16 0.19,0.29 0.15,0.13 0.51,0.13 h 0.09 q 0.11,0 0.17,0.04 0.05,0.04 0.07,0.21 0,0.11 -0.07,0.19 -0.06,0.09 -0.16,0.09 -0.81,-0.04 -1.47,-0.04 -0.63,0 -1.45,0.04 -0.1,0 -0.16,-0.09 -0.07,-0.08 -0.07,-0.19 0.02,-0.18 0.08,-0.22 0.06,-0.03 0.24,-0.03 0.37,0 0.52,-0.13 0.16,-0.13 0.18,-0.29 0.03,-0.17 0.03,-0.54 V 8.32 q 0,-0.65 -0.4,-0.99 -0.41,-0.34 -0.94,-0.34 -0.65,0 -1.11,0.31 -0.46,0.32 -0.63,0.65 v 3.33 q 0,0.37 0.03,0.54 0.03,0.16 0.18,0.29 0.16,0.13 0.52,0.13 h 0.08 q 0.12,0 0.17,0.04 0.06,0.04 0.07,0.21 0,0.11 -0.05,0.19 -0.06,0.09 -0.17,0.09 -0.81,-0.04 -1.47,-0.04 -0.63,0 -1.46,0.04 z m 11.55,0.12 q -1.05,0 -1.78,-0.44 -0.74,-0.45 -1.12,-1.22 -0.37,-0.77 -0.37,-1.71 0,-0.83 0.38,-1.59 0.39,-0.76 1.1,-1.24 0.71,-0.47 1.64,-0.47 1.24,0 1.92,0.63 0.67,0.64 0.77,1.72 0,0.46 -0.26,0.63 -0.25,0.17 -0.72,0.17 h -3.41 q 0,1.3 0.54,2.06 0.54,0.76 1.68,0.76 0.6,0 1.02,-0.25 0.42,-0.26 0.8,-0.88 0.07,-0.07 0.14,-0.07 0.09,0 0.16,0.06 0.14,0.08 0.14,0.25 0,0.08 -0.02,0.12 -0.44,0.7 -1.1,1.09 -0.67,0.38 -1.51,0.38 z M 68.89,8.83 h 2.29 q 0.71,0 0.75,-0.58 0,-0.65 -0.35,-1.1 -0.35,-0.44 -0.99,-0.44 -0.72,0 -1.18,0.56 -0.46,0.57 -0.52,1.56 z m 5.72,3.94 q -0.1,0 -0.16,-0.09 -0.07,-0.08 -0.07,-0.19 0.02,-0.18 0.09,-0.22 0.07,-0.03 0.25,-0.03 0.36,0 0.52,-0.13 0.15,-0.13 0.17,-0.29 0.02,-0.17 0.02,-0.54 v -3.2 q 0,-0.37 -0.02,-0.53 -0.02,-0.17 -0.17,-0.3 -0.16,-0.12 -0.52,-0.12 -0.17,0 -0.25,-0.05 -0.09,-0.05 -0.09,-0.23 0,-0.09 0.06,-0.16 0.05,-0.08 0.17,-0.1 0.91,-0.14 1.49,-0.36 0.24,-0.07 0.33,-0.08 h 0.04 q 0.22,0 0.22,0.26 v 0.87 h 0.04 q 0.49,-0.49 1,-0.78 0.5,-0.28 0.91,-0.28 0.46,0 0.73,0.34 0.28,0.34 0.28,0.79 0,0.39 -0.24,0.7 -0.24,0.31 -0.66,0.31 -0.2,0 -0.34,-0.09 -0.15,-0.08 -0.16,-0.14 0.01,-0.02 0.14,-0.17 0.12,-0.15 0.12,-0.34 0,-0.26 -0.13,-0.41 -0.13,-0.15 -0.36,-0.15 -0.24,0 -0.6,0.23 -0.36,0.23 -0.71,0.58 v 3.41 q 0,0.37 0.02,0.54 0.03,0.16 0.19,0.29 0.15,0.13 0.51,0.13 h 0.09 q 0.11,0 0.17,0.04 0.05,0.04 0.07,0.21 0,0.11 -0.06,0.19 -0.06,0.09 -0.17,0.09 -0.81,-0.04 -1.47,-0.04 -0.63,0 -1.45,0.04 z"
       id="path833" />
  </g>
  <g
     id="46b7580e-7919-46d7-88e5-ce2884be365c"
     transform="scale(2.9109541)"
     data-v-fde0c5aa="">
    <path
       d="M 4.029,14.362 14.362,4.028 15.069,4.735 4.736,15.07 Z M 17.135,27.47 27.47,17.135 28.177,17.842 17.844,28.175 Z M 4.029,17.841 4.736,17.134 15.069,27.468 14.362,28.175 Z M 17.135,4.735 17.843,4.028 28.176,14.36 27.469,15.067 Z"
       fill="url(#linearGradient1649)"
       id="path836"
       style="fill:url(#linearGradient1649)" />
    <g
       fill="url(#linearGradient1651)"
       id="g840"
       style="fill:url(#linearGradient1651)">
      <path
         d="M 16,1.414 17.683,3.097 16,4.779 14.317,3.096 16,1.414 M 16,0 12.903,3.097 16,6.194 19.097,3.097 Z m 0,27.221 1.683,1.683 L 16,30.586 14.317,28.903 16,27.221 M 16,25.806 12.903,28.903 16,32 19.097,28.903 Z M 3.097,14.317 4.779,16 3.096,17.683 1.414,16 3.097,14.317 m 0,-1.414 L 0,16 3.097,19.097 6.194,16 Z M 28.903,14.317 30.586,16 28.903,17.683 27.221,16 28.903,14.317 m 0,-1.414 L 25.806,16 28.903,19.097 32,16 Z"
         fill="url(#linearGradient1651)"
         id="path838"
         style="fill:url(#linearGradient931)" />
    </g>
  </g>
</svg>
